<svg width="14" height="8" viewBox="0 0 14 8" fill="currentColor" xmlns="http://www.w3.org/2000/svg">
<path d="M1.41385 7.58577H12.5858C12.7836 7.58573 12.9769 7.52706 13.1413 7.41717C13.3057 7.30729 13.4339 7.15113 13.5095 6.96843C13.5852 6.78573 13.605 6.58469 13.5664 6.39074C13.5279 6.19679 13.4327 6.01863 13.2928 5.87877L7.70685 0.292786C7.51932 0.105315 7.26501 0 6.99985 0C6.73468 0 6.48038 0.105315 6.29285 0.292786L0.706849 5.87877C0.56704 6.01863 0.471833 6.19679 0.433266 6.39074C0.394698 6.58469 0.414502 6.78573 0.490172 6.96843C0.565842 7.15113 0.693981 7.30729 0.858391 7.41717C1.0228 7.52706 1.2161 7.58573 1.41385 7.58577Z" fill="currentColor"/>
</svg>